<svg xmlns="http://www.w3.org/2000/svg" width="1440" height="860" viewBox="0 0 1440 860" role="img" aria-labelledby="title desc">
  <title id="title">Podlord inspector and settings preview</title>
  <desc id="desc">Sanitized preview of Podlord showing a resource inspector, YAML editor, port action, and settings panel.</desc>
  <defs>
    <linearGradient id="panel" x1="0" x2="0" y1="0" y2="1">
      <stop offset="0" stop-color="#15191b"/>
      <stop offset="1" stop-color="#070909"/>
    </linearGradient>
    <pattern id="grid" width="16" height="16" patternUnits="userSpaceOnUse">
      <rect width="16" height="16" fill="#050707"/>
      <circle cx="3" cy="4" r="0.7" fill="#273129" opacity="0.45"/>
      <circle cx="12" cy="11" r="0.6" fill="#24303a" opacity="0.35"/>
    </pattern>
  </defs>
  <rect width="1440" height="860" fill="#050707"/>
  <rect x="0" y="0" width="1440" height="54" fill="#101315" stroke="#7f6233"/>
  <g font-family="SFMono-Regular,Consolas,monospace" font-weight="700" font-size="19">
    <rect x="18" y="14" width="34" height="28" fill="#0a0d0e" stroke="#b47c31"/>
    <text x="29" y="35" fill="#d69f44">⌕</text>
    <g fill="#0d1112" stroke="#b47c31">
      <rect x="68" y="10" width="128" height="36"/>
      <rect x="208" y="10" width="104" height="36"/>
      <rect x="324" y="10" width="112" height="36"/>
      <rect x="448" y="10" width="88" height="36"/>
      <rect x="548" y="10" width="118" height="36"/>
    </g>
    <text x="88" y="34" fill="#d69f44">RESOURCES</text>
    <text x="233" y="34" fill="#d69f44">GRAPH</text>
    <text x="349" y="34" fill="#d69f44">EVENTS</text>
    <text x="471" y="34" fill="#d69f44">PORTS</text>
    <text x="570" y="34" fill="#f2e0bf">SETTINGS</text>
  </g>

  <rect x="0" y="68" width="1440" height="300" fill="#020404" stroke="#846333"/>
  <rect x="0" y="68" width="1440" height="42" fill="url(#panel)" stroke="#846333"/>
  <text x="24" y="96" fill="#d69f44" font-family="SFMono-Regular,Consolas,monospace" font-size="18" font-weight="700">⬢ Pod/payments-api-6cfb85</text>
  <g transform="translate(1210 78)" font-family="SFMono-Regular,Consolas,monospace" font-size="16" font-weight="700">
    <rect width="70" height="26" fill="#0b1112" stroke="#b47c31"/>
    <text x="16" y="19" fill="#d69f44">PORT</text>
    <rect x="86" width="40" height="26" fill="#0b1112" stroke="#b47c31"/>
    <text x="100" y="19" fill="#d69f44">⌫</text>
    <rect x="142" width="34" height="26" fill="#0b1112" stroke="#b47c31"/>
    <text x="154" y="19" fill="#d69f44">×</text>
  </g>
  <g font-family="SFMono-Regular,Consolas,monospace" font-size="17" font-weight="700">
    <rect x="0" y="110" width="1440" height="48" fill="#101315"/>
    <text x="22" y="141" fill="#f2e0bf">Overview</text>
    <text x="134" y="141" fill="#d69f44">YAML</text>
    <text x="226" y="141" fill="#b7a98d">Events</text>
    <text x="328" y="141" fill="#b7a98d">Links</text>
    <text x="420" y="141" fill="#b7a98d">Logs</text>
    <path d="M124 154h58" stroke="#d69f44" stroke-width="3"/>
  </g>
  <rect x="12" y="174" width="1416" height="174" fill="#050707" stroke="#846333"/>
  <rect x="12" y="174" width="1416" height="34" fill="#121719"/>
  <text x="24" y="197" fill="#b7a98d" font-family="SFMono-Regular,Consolas,monospace" font-size="17">YAML syntax: ok; 118 lines. Server-side apply uses field manager podlord.</text>
  <text x="1260" y="197" fill="#d69f44" font-family="SFMono-Regular,Consolas,monospace" font-size="17" font-weight="700">APPLY SERVER-SIDE</text>
  <g font-family="SFMono-Regular,Consolas,monospace" font-size="16">
    <text x="28" y="232" fill="#7dcfff">1</text><text x="58" y="232" fill="#6fd3ff">kind:</text><text x="120" y="232" fill="#e9dbbd"> Pod</text>
    <text x="28" y="258" fill="#7dcfff">2</text><text x="58" y="258" fill="#6fd3ff">apiVersion:</text><text x="176" y="258" fill="#e9dbbd"> v1</text>
    <text x="28" y="284" fill="#7dcfff">3</text><text x="58" y="284" fill="#6fd3ff">metadata:</text>
    <text x="28" y="310" fill="#7dcfff">4</text><text x="88" y="310" fill="#6fd3ff">name:</text><text x="152" y="310" fill="#e9dbbd"> payments-api-6cfb85</text>
    <text x="28" y="336" fill="#7dcfff">5</text><text x="88" y="336" fill="#6fd3ff">namespace:</text><text x="198" y="336" fill="#e9dbbd"> payments</text>
  </g>

  <g transform="translate(0 384)">
    <rect width="1440" height="438" fill="url(#grid)" stroke="#846333"/>
    <text x="18" y="34" fill="#d69f44" font-family="SFMono-Regular,Consolas,monospace" font-size="22" font-weight="700">SETTINGS</text>
    <g font-family="SFMono-Regular,Consolas,monospace" font-size="18" font-weight="700">
      <text x="42" y="88" fill="#b7a98d">Appearance</text>
      <text x="182" y="88" fill="#f2e0bf">Graphics</text>
      <text x="306" y="88" fill="#b7a98d">Privacy</text>
      <text x="410" y="88" fill="#b7a98d">Sources</text>
      <text x="518" y="88" fill="#b7a98d">Sync</text>
      <path d="M180 100h92" stroke="#d69f44" stroke-width="3"/>
    </g>
    <g font-family="SFMono-Regular,Consolas,monospace">
      <g transform="translate(72 134)">
        <text x="0" y="24" fill="#f2e0bf" font-size="19" font-weight="700">Radar water</text>
        <rect x="386" y="0" width="24" height="24" rx="4" fill="#0b1112" stroke="#d69f44"/>
        <path d="M392 12l6 7 13-16" fill="none" stroke="#58d68a" stroke-width="3"/>
        <text x="436" y="21" fill="#b7a98d" font-size="16">Animated radar background</text>
      </g>
      <g transform="translate(72 198)">
        <text x="0" y="24" fill="#f2e0bf" font-size="19" font-weight="700">Water speed</text>
        <rect x="386" y="10" width="620" height="4" fill="#202623"/>
        <rect x="386" y="10" width="250" height="4" fill="#58d68a"/>
        <circle cx="636" cy="12" r="9" fill="#d69f44"/>
        <text x="1030" y="20" fill="#f2e0bf" font-size="18">45%</text>
        <text x="386" y="46" fill="#b7a98d" font-size="16">0 disables water; speed still scales with API activity.</text>
      </g>
      <g transform="translate(72 282)">
        <text x="0" y="24" fill="#f2e0bf" font-size="19" font-weight="700">Auto-follow radar alerts</text>
        <rect x="386" y="0" width="24" height="24" rx="4" fill="#0b1112" stroke="#d69f44"/>
        <path d="M392 12l6 7 13-16" fill="none" stroke="#58d68a" stroke-width="3"/>
        <text x="436" y="21" fill="#b7a98d" font-size="16">Moves to newest error, warning, or activity.</text>
      </g>
    </g>
  </g>

  <rect x="0" y="822" width="1440" height="38" fill="#101315" stroke="#7f6233"/>
  <text x="16" y="846" fill="#b7a98d" font-family="SFMono-Regular,Consolas,monospace" font-size="18">visible: 128/842   API: 18/min   Synced: 8s ago</text>
</svg>
